<svg width="117" height="171" viewBox="0 0 117 171" fill="none" xmlns="http://www.w3.org/2000/svg">
<path fill-rule="evenodd" clip-rule="evenodd" d="M104 91.8368C104 62.7959 80.7574 39.2271 52 39V42.0001C79.0784 42.2272 101 64.4305 101 91.8368H104Z" fill="white"/>
<path fill-rule="evenodd" clip-rule="evenodd" d="M52 41.6926C79.8098 42.366 102.161 65.3029 102.161 93.5158C102.161 103.781 99.2022 113.348 94.0978 121.398L94.9001 122C100.129 113.78 103.161 104.005 103.161 93.5158C103.161 64.7579 80.3692 41.3658 52 40.6923V41.6926Z" fill="white"/>
<line x1="94.2817" y1="121.587" x2="116.282" y2="136.587" stroke="white"/>
<line x1="52.5" y1="40" x2="52.5" stroke="white"/>
<line x1="115.5" y1="136" x2="115.5" y2="171" stroke="white"/>
<path d="M102.469 85.7896C102.703 87.4764 102.862 89.1885 102.941 90.9223L102.442 90.9451C102.48 91.7916 102.5 92.6434 102.5 93.5C102.5 94.3566 102.48 95.2084 102.442 96.0549L102.941 96.0777C102.862 97.8115 102.703 99.5237 102.469 101.21L101.974 101.142C101.738 102.842 101.424 104.517 101.036 106.161L101.522 106.276C101.125 107.96 100.651 109.613 100.104 111.231L99.6307 111.07C99.0824 112.693 98.4603 114.279 97.7685 115.824L98.2249 116.029C97.5197 117.605 96.7427 119.139 95.8985 120.627L95.4636 120.38C94.6203 121.866 93.7092 123.306 92.7348 124.695L93.1441 124.982C92.1542 126.393 91.0994 127.751 89.9845 129.053L89.6047 128.727C88.495 130.023 87.3251 131.261 86.0995 132.438L86.4458 132.799C85.2048 133.99 83.9072 135.119 82.5577 136.18L82.2486 135.787C80.9107 136.84 79.5213 137.825 78.0852 138.738L78.3536 139.16C76.9051 140.082 75.4094 140.931 73.8711 141.702L73.6469 141.256C72.13 142.017 70.5714 142.702 68.9757 143.307L69.1529 143.774C67.553 144.381 65.916 144.907 64.2465 145.349L64.1186 144.865C62.4846 145.298 60.819 145.648 59.1261 145.912L59.2031 146.406C57.5197 146.668 55.8096 146.845 54.077 146.934L54.0514 146.435C53.2062 146.478 52.3556 146.5 51.5 146.5C50.6444 146.5 49.7938 146.478 48.9486 146.435L48.923 146.934C47.1904 146.845 45.4803 146.668 43.7969 146.406L43.8739 145.912C42.181 145.648 40.5154 145.298 38.8814 144.865L38.7535 145.349C37.084 144.907 35.447 144.381 33.8471 143.774L34.0243 143.307C32.4286 142.702 30.87 142.017 29.3531 141.256L29.1289 141.702C27.5906 140.931 26.0949 140.082 24.6464 139.16L24.9148 138.738C23.4787 137.825 22.0893 136.84 20.7514 135.787L20.4423 136.18C19.0928 135.119 17.7952 133.99 16.5542 132.799L16.9005 132.438C15.6749 131.261 14.505 130.023 13.3953 128.727L13.0156 129.053C11.9006 127.751 10.8459 126.393 9.85594 124.982L10.2652 124.695C9.29079 123.306 8.37971 121.866 7.53642 120.38L7.10154 120.627C6.25726 119.139 5.48033 117.605 4.77509 116.029L5.23147 115.824C4.53973 114.279 3.9176 112.693 3.36926 111.07L2.89559 111.231C2.34891 109.613 1.87492 107.96 1.47768 106.276L1.96433 106.161C1.57647 104.517 1.26244 102.842 1.02612 101.142L0.530877 101.21C0.296516 99.5237 0.1379 97.8115 0.0587277 96.0777L0.558207 96.0549C0.51955 95.2084 0.5 94.3566 0.5 93.5C0.5 92.6434 0.51955 91.7916 0.558208 90.9451L0.0587281 90.9223C0.137901 89.1885 0.296517 87.4763 0.530879 85.7896L1.02612 85.8584C1.26244 84.1576 1.57647 82.483 1.96433 80.8386L1.47769 80.7238C1.87492 79.0396 2.34891 77.3868 2.89559 75.7695L3.36926 75.9296C3.9176 74.3073 4.53974 72.7212 5.23147 71.1756L4.77509 70.9713C5.48033 69.3955 6.25726 67.8613 7.10154 66.3733L7.53642 66.62C8.37971 65.1337 9.29078 63.694 10.2652 62.3053L9.85594 62.0181C10.8458 60.6074 11.9006 59.2489 13.0155 57.9474L13.3953 58.2726C14.505 56.9772 15.6749 55.7388 16.9005 54.5621L16.5542 54.2014C17.7952 53.0099 19.0928 51.881 20.4423 50.8196L20.7514 51.2126C22.0893 50.1603 23.4787 49.1751 24.9148 48.2616L24.6464 47.8397C26.0949 46.9185 27.5906 46.0695 29.1289 45.2976L29.3531 45.7445C30.87 44.9834 32.4286 44.298 34.0243 43.6932L33.8471 43.2257C35.447 42.6193 37.084 42.0929 38.7535 41.6513L38.8814 42.1347C40.5154 41.7025 42.181 41.3522 43.8739 41.0885L43.7969 40.5944C45.4803 40.3322 47.1904 40.1545 48.923 40.0658L48.9486 40.5652C49.7938 40.5219 50.6444 40.5 51.5 40.5C52.3556 40.5 53.2062 40.5219 54.0514 40.5652L54.077 40.0658C55.8096 40.1545 57.5197 40.3322 59.2031 40.5944L59.1261 41.0885C60.819 41.3522 62.4846 41.7025 64.1186 42.1347L64.2465 41.6513C65.916 42.0929 67.553 42.6193 69.1529 43.2257L68.9757 43.6932C70.5714 44.298 72.13 44.9834 73.6469 45.7445L73.8711 45.2976C75.4094 46.0695 76.9051 46.9185 78.3536 47.8397L78.0852 48.2616C79.5213 49.1751 80.9107 50.1603 82.2486 51.2126L82.5577 50.8196C83.9072 51.881 85.2048 53.0099 86.4458 54.2014L86.0995 54.5621C87.3251 55.7388 88.495 56.9772 89.6047 58.2726L89.9845 57.9474C91.0994 59.2489 92.1541 60.6074 93.1441 62.0181L92.7348 62.3053C93.7092 63.694 94.6203 65.1337 95.4636 66.62L95.8985 66.3733C96.7427 67.8613 97.5197 69.3955 98.2249 70.9713L97.7685 71.1756C98.4603 72.7212 99.0824 74.3073 99.6307 75.9296L100.104 75.7695C100.651 77.3868 101.125 79.0396 101.522 80.7238L101.036 80.8386C101.424 82.483 101.738 84.1576 101.974 85.8584L102.469 85.7896Z" stroke="white" stroke-dasharray="5 5"/>
</svg>
