<svg width="58" height="48" viewBox="0 0 58 48" fill="none" xmlns="http://www.w3.org/2000/svg">
<path d="M0.878167 11.504C-0.206775 12.544 -0.299103 14.329 0.671951 15.491C1.64298 16.6529 3.30968 16.7518 4.3946 15.7118L0.878167 11.504ZM53.6054 15.7118C54.6903 16.7518 56.357 16.6529 57.328 15.491C58.2992 14.329 58.2067 12.544 57.1218 11.504L53.6054 15.7118ZM29 42.3529C27.5439 42.3529 26.3636 43.617 26.3636 45.1765C26.3636 46.7359 27.5439 48 29 48V42.3529ZM29.0264 48C30.4824 48 31.6627 46.7359 31.6627 45.1765C31.6627 43.617 30.4824 42.3529 29.0264 42.3529V48ZM36.0931 36.8188C37.1701 37.8681 38.8376 37.7836 39.8173 36.6302C40.7972 35.4765 40.7181 33.6909 39.6412 32.6414L36.0931 36.8188ZM44.9603 26.3726C46.0372 27.4218 47.7047 27.3374 48.6844 26.1837C49.6641 25.0303 49.5852 23.2444 48.5083 22.1952L44.9603 26.3726ZM18.3589 32.6414C17.2818 33.6909 17.2029 35.4765 18.1827 36.6302C19.1624 37.7836 20.8298 37.8681 21.9069 36.8188L18.3589 32.6414ZM9.49182 22.1952C8.41474 23.2444 8.3358 25.0303 9.31556 26.1837C10.2953 27.3374 11.9627 27.4218 13.0398 26.3726L9.49182 22.1952ZM4.3946 15.7118C10.9263 9.45081 19.5452 5.64706 29 5.64706V0C18.1982 0 8.33915 4.35213 0.878167 11.504L4.3946 15.7118ZM29 5.64706C38.4548 5.64706 47.0738 9.45081 53.6054 15.7118L57.1218 11.504C49.6609 4.35213 39.8017 0 29 0V5.64706ZM29 48H29.0264V42.3529H29V48ZM29 33.8824C31.7331 33.8824 34.2182 34.9923 36.0931 36.8188L39.6412 32.6414C36.8334 29.9063 33.0959 28.2353 29 28.2353V33.8824ZM29 19.7647C35.1477 19.7647 40.7439 22.2649 44.9603 26.3726L48.5083 22.1952C43.3592 17.1789 36.5102 14.1176 29 14.1176V19.7647ZM21.9069 36.8188C23.7819 34.9923 26.2669 33.8824 29 33.8824V28.2353C24.9042 28.2353 21.1666 29.9063 18.3589 32.6414L21.9069 36.8188ZM13.0398 26.3726C17.2562 22.2649 22.8524 19.7647 29 19.7647V14.1176C21.4897 14.1176 14.6409 17.1789 9.49182 22.1952L13.0398 26.3726Z" fill="white"/>
</svg>
