<svg width="135" height="135" viewBox="0 0 135 135" fill="none" xmlns="http://www.w3.org/2000/svg">
<path d="M51.4126 67.5H83.6438V83.5875C83.6445 86.3984 82.5435 89.0975 80.577 91.106C78.6106 93.1145 75.9353 94.2724 73.1251 94.3313H61.8751C59.0257 94.3313 56.293 93.1993 54.2781 91.1845C52.2633 89.1696 51.1313 86.4369 51.1313 83.5875V67.5H51.4126Z" stroke="white" stroke-width="10" stroke-miterlimit="10"/>
<path d="M78.2438 46.0125H56.7563V67.4999H78.2438V46.0125Z" stroke="white" stroke-width="10" stroke-miterlimit="10"/>
<path d="M67.5 94.3313V114.638C67.4775 116.215 67.8084 117.778 68.4685 119.212C69.1286 120.645 70.1011 121.912 71.3147 122.921C72.5283 123.93 73.9522 124.654 75.4821 125.041C77.0121 125.428 78.6091 125.467 80.1563 125.156C92.9501 122.335 104.441 115.337 112.818 105.264C121.195 95.1905 125.982 82.616 126.423 69.5223C126.865 56.4286 122.936 43.5603 115.256 32.946C107.577 22.3317 96.5829 14.575 84.0081 10.8987C71.4333 7.22241 57.9927 7.83556 45.8049 12.6415C33.617 17.4475 23.3753 26.1729 16.694 37.4424C10.0127 48.7118 7.27189 61.8844 8.90365 74.8835C10.5354 87.8826 16.4469 99.9691 25.7063 109.238" stroke="white" stroke-width="10" stroke-miterlimit="10"/>
</svg>
