<svg width="48" height="160" viewBox="0 0 48 160" fill="none" xmlns="http://www.w3.org/2000/svg">
<path d="M32 136H16V156C16 158.209 14.2091 160 12 160C9.79086 160 8 158.209 8 156V135.317C3.33923 133.67 0 129.225 0 124V92C0 86.7751 3.33923 82.3302 8 80.6828V32C8 31.379 8.14458 30.7666 8.42229 30.2111L11.5279 24L8.42229 17.7889C7.65232 16.2489 7.95413 14.389 9.17157 13.1716L21.1716 1.17157C22.7337 -0.390524 25.2663 -0.390524 26.8284 1.17157L38.8284 13.1716C40.0459 14.389 40.3477 16.2489 39.5777 17.7889L36.4721 24L39.5777 30.2111C39.8554 30.7666 40 31.379 40 32V80.6828C44.6608 82.3302 48 86.7751 48 92V124C48 129.225 44.6608 133.67 40 135.317V156C40 158.209 38.2091 160 36 160C33.7909 160 32 158.209 32 156V136ZM31.5279 32H16.4721L16 32.9443V40H32V32.9443L31.5279 32ZM28 24C28 23.3871 28.1408 22.7742 28.4223 22.2111L31.133 16.7898L24 9.65685L16.867 16.7898L19.5777 22.2111C19.8592 22.7742 20 23.3871 20 24H28ZM40 104H8V112H40V104ZM40 96V92C40 89.7909 38.2091 88 36 88H12C9.79086 88 8 89.7909 8 92V96H40ZM40 120H8V124C8 126.209 9.79086 128 12 128H36C38.2091 128 40 126.209 40 124V120ZM32 48H16V80H32V48Z" fill="white"/>
</svg>
