<svg width="86" height="156" viewBox="0 0 86 156" fill="none" xmlns="http://www.w3.org/2000/svg">
<path d="M60.6707 155.962H50.5389C36.5733 155.962 25.2095 144.598 25.2095 130.633V115.435C25.2095 112.638 27.478 110.369 30.2754 110.369C33.0727 110.369 35.3412 112.638 35.3412 115.435V130.633C35.3412 139.013 42.1584 145.83 50.5389 145.83H60.6707C69.0512 145.83 75.8683 139.013 75.8683 130.633V79.9737C75.8683 77.1763 78.1368 74.9078 80.9342 74.9078C83.7316 74.9078 86.0001 77.1763 86.0001 79.9737V130.633C86.0001 144.598 74.6363 155.962 60.6707 155.962Z" fill="white"/>
<path d="M50.6586 5C50.6833 5 50.7052 5.00174 50.7245 5.00455V32.4494C50.7052 32.4522 50.6833 32.4539 50.6586 32.4539H10.1316C10.1069 32.4539 10.085 32.4522 10.0657 32.4494V5.00455C10.085 5.00174 10.1069 5 10.1316 5H50.6586Z" stroke="white" stroke-width="10"/>
<path d="M47.1337 89.717L45.6589 91.1832V93.2629V111.449C45.6589 111.453 45.6587 111.455 45.6586 111.456L45.6583 111.458C45.6583 111.458 45.6581 111.459 45.6572 111.461C45.655 111.467 45.6485 111.478 45.6352 111.492C45.6219 111.505 45.6101 111.511 45.6049 111.514C45.6028 111.515 45.6019 111.515 45.6017 111.515L45.5998 111.515C45.5988 111.515 45.5965 111.515 45.593 111.515H15.1977C15.1941 111.515 15.1919 111.515 15.1908 111.515L15.1889 111.515C15.1887 111.515 15.1879 111.515 15.1857 111.514C15.1805 111.511 15.1687 111.505 15.1554 111.492C15.1421 111.478 15.1356 111.467 15.1334 111.461C15.1325 111.459 15.1324 111.458 15.1323 111.458L15.1321 111.456C15.1319 111.455 15.1318 111.453 15.1318 111.449V93.2629V91.1832L13.6569 89.717L5.07376 81.184C5.0364 81.1395 5.01692 81.1028 5.00799 81.0814C5.00282 81.069 5.00106 81.0615 5.00053 81.0589C5.00006 81.0566 5 81.0556 5 81.0541V35.4611C5 35.4576 5.00018 35.4554 5.00029 35.4543L5.00055 35.4524L5.00056 35.4524C5.0006 35.4522 5.00078 35.4513 5.00166 35.4492C5.00387 35.444 5.01037 35.4322 5.02364 35.4189C5.03691 35.4056 5.04874 35.3991 5.05396 35.3969C5.05608 35.396 5.05698 35.3959 5.05714 35.3958L5.05901 35.3956C5.0601 35.3954 5.06232 35.3953 5.06589 35.3953H55.7247C55.7283 35.3953 55.7305 35.3954 55.7316 35.3956L55.7335 35.3958C55.7336 35.3959 55.7345 35.396 55.7367 35.3969C55.7419 35.3991 55.7537 35.4056 55.767 35.4189C55.7803 35.4322 55.7867 35.444 55.789 35.4492C55.7899 35.4513 55.79 35.4522 55.7901 35.4524L55.7903 35.4543C55.7904 35.4548 55.7905 35.4557 55.7905 35.4568C55.7906 35.458 55.7906 35.4594 55.7906 35.4611V81.0541C55.7906 81.0556 55.7906 81.0566 55.7901 81.0589C55.7896 81.0615 55.7878 81.069 55.7826 81.0814C55.7737 81.1028 55.7542 81.1395 55.7169 81.184L47.1337 89.717Z" stroke="white" stroke-width="10"/>
<path d="M25.3295 20.2635C25.3295 23.0498 23.0498 25.3294 20.2636 25.3294H5.06592V15.1976H20.2636C23.0498 15.1976 25.3295 17.4773 25.3295 20.2635Z" fill="white"/>
<path d="M55.7247 15.1976V25.3294H40.5271C37.7408 25.3294 35.4612 23.0498 35.4612 20.2635C35.4612 17.4773 37.7408 15.1976 40.5271 15.1976H55.7247Z" fill="white"/>
</svg>
