<svg width="91" height="156" viewBox="0 0 91 156" fill="none" xmlns="http://www.w3.org/2000/svg">
<path fill-rule="evenodd" clip-rule="evenodd" d="M26 45.5H65V32.5V13H26V32.5V45.5ZM26 32.5C26 36.0898 28.9102 39 32.5 39C36.09 39 39 36.0898 39 32.5C39 28.9102 36.09 26 32.5 26C28.9102 26 26 28.9102 26 32.5ZM65 32.5C65 28.9102 62.09 26 58.5 26C54.91 26 52 28.9102 52 32.5C52 36.0898 54.91 39 58.5 39C62.09 39 65 36.0898 65 32.5ZM77.9109 46.5784C77.9694 46.2276 78 45.8674 78 45.5V6.5C78 2.91015 75.09 0 71.5 0H19.5C15.9102 0 13 2.91015 13 6.5V45.5C13 45.8674 13.0305 46.2276 13.0891 46.5784C5.46884 49.23 0 56.4764 0 65V110.5C0 135.629 20.3711 156 45.5 156C70.629 156 91 135.629 91 110.5V65C91 56.4764 85.5309 49.23 77.9109 46.5784ZM13 65C13 61.4102 15.9102 58.5 19.5 58.5H71.5C75.09 58.5 78 61.4102 78 65V110.5C78 128.449 63.4491 143 45.5 143C27.5508 143 13 128.449 13 110.5V65Z" fill="white"/>
</svg>
