<svg width="136" height="105" viewBox="0 0 136 105" fill="none" xmlns="http://www.w3.org/2000/svg">
<path d="M2.05915 25.165C-0.484851 27.44 -0.701344 31.3447 1.57561 33.8865C3.8525 36.4283 7.76064 36.6446 10.3046 34.3696L2.05915 25.165ZM125.696 34.3696C128.239 36.6446 132.147 36.4283 134.424 33.8865C136.702 31.3447 136.485 27.44 133.941 25.165L125.696 34.3696ZM68 92.6471C64.5858 92.6471 61.8182 95.4123 61.8182 98.8235C61.8182 102.235 64.5858 105 68 105V92.6471ZM68.0618 105C71.4761 105 74.2437 102.235 74.2437 98.8235C74.2437 95.4123 71.4761 92.6471 68.0618 92.6471V105ZM84.6322 80.5412C87.1575 82.8364 91.0675 82.6517 93.3646 80.1286C95.6624 77.6049 95.477 73.6989 92.9517 71.4031L84.6322 80.5412ZM105.424 57.6901C107.949 59.9853 111.859 59.8006 114.157 57.2769C116.454 54.7538 116.269 50.8472 113.744 48.552L105.424 57.6901ZM43.0485 71.4031C40.5229 73.6989 40.3379 77.6049 42.6352 80.1286C44.9326 82.6517 48.8423 82.8364 51.3678 80.5412L43.0485 71.4031ZM22.2567 48.552C19.7311 50.8472 19.546 54.7538 21.8434 57.2769C24.1407 59.8006 28.0504 59.9853 30.576 57.6901L22.2567 48.552ZM10.3046 34.3696C25.6202 20.6736 45.8302 12.3529 68 12.3529V0C42.6716 0 19.5539 9.52029 2.05915 25.165L10.3046 34.3696ZM68 12.3529C90.1699 12.3529 110.38 20.6736 125.696 34.3696L133.941 25.165C116.446 9.52029 93.3281 0 68 0V12.3529ZM68 105H68.0618V92.6471H68V105ZM68 74.1176C74.4087 74.1176 80.2357 76.5456 84.6322 80.5412L92.9517 71.4031C86.368 65.4199 77.6041 61.7647 68 61.7647V74.1176ZM68 43.2353C82.4154 43.2353 95.5375 48.7046 105.424 57.6901L113.744 48.552C101.67 37.5789 85.6102 30.8824 68 30.8824V43.2353ZM51.3678 80.5412C55.7643 76.5456 61.5913 74.1176 68 74.1176V61.7647C58.396 61.7647 49.6321 65.4199 43.0485 71.4031L51.3678 80.5412ZM30.576 57.6901C40.4627 48.7046 53.5849 43.2353 68 43.2353V30.8824C50.3897 30.8824 34.3304 37.5789 22.2567 48.552L30.576 57.6901Z" fill="white"/>
</svg>
